<svg width="500" height="500" viewBox="0 0 500 500" fill="none" xmlns="http://www.w3.org/2000/svg">
<path d="M109.375 250C118.75 250 125 256.25 125 265.625V328.125C125 337.5 118.75 343.75 109.375 343.75C100 343.75 93.75 337.5 93.75 328.125V265.625C93.75 256.25 100 250 109.375 250ZM109.375 218.75C84.375 218.75 62.5 240.625 62.5 265.625V328.125C62.5 353.125 84.375 375 109.375 375C134.375 375 156.25 353.125 156.25 328.125V265.625C156.25 240.625 134.375 218.75 109.375 218.75Z" fill="#FF0000"/>
<path d="M250 218.75V328.125C250 337.5 243.75 343.75 234.375 343.75C225 343.75 218.75 337.5 218.75 328.125V218.75H187.5V328.125C187.5 353.125 209.375 375 234.375 375C259.375 375 281.25 353.125 281.25 328.125V218.75H250Z" fill="#FF0000"/>
<path d="M406.25 218.75H312.5V250H343.75V375H375V250H406.25V218.75Z" fill="#FF0000"/>
<path d="M468.75 187.5V156.25H393.75L278.125 62.5C281.25 56.25 281.25 53.125 281.25 46.875C281.25 21.875 259.375 0 234.375 0C209.375 0 187.5 21.875 187.5 46.875C187.5 53.125 187.5 56.25 190.625 62.5L75 156.25H0V437.5H31.25V468.75H500V187.5H468.75ZM209.375 87.5C218.75 90.625 225 93.75 234.375 93.75C243.75 93.75 250 90.625 259.375 87.5L343.75 156.25H125L209.375 87.5ZM437.5 406.25H31.25V187.5H437.5V406.25Z" fill="#FF0000"/>
</svg>
