<svg width="2048" height="2048" viewBox="0 0 2048 2048" fill="none" xmlns="http://www.w3.org/2000/svg">
<rect width="2048" height="2048" fill="#4A494A"/>
<path d="M1227.12 953.688H1216.48C1211.55 950.776 1206.31 948.424 1200.86 946.676C1183.67 940.992 1160.97 938.062 1133.38 938.062C1105.78 938.062 1083.08 940.992 1065.93 946.676C1052.2 951.256 1046.16 956.305 1044.21 958.268C1037.9 955.253 1031 953.688 1024.01 953.688C1017.02 953.688 1010.12 955.253 1003.81 958.268C1001.86 956.314 995.816 951.256 982.086 946.676C964.918 940.992 942.223 938.062 914.625 938.062C887.027 938.062 864.332 940.992 847.184 946.676C841.73 948.424 836.49 950.776 831.559 953.688H820.875C816.731 953.688 812.757 955.334 809.826 958.264C806.896 961.194 805.25 965.168 805.25 969.312C805.25 973.457 806.896 977.431 809.826 980.361C812.757 983.291 816.731 984.938 820.875 984.938H821.041C822.018 1029.33 827.33 1056.01 838.727 1075.01C845.866 1087.27 856.81 1096.87 869.898 1102.35C881.842 1107.47 896.48 1109.96 914.625 1109.96C938.209 1109.96 971.734 1106.33 990.523 1075.03C999.977 1059.26 1005.26 1038.22 1007.33 1006.16C1008.02 1004.37 1008.37 1002.48 1008.38 1000.56C1008.38 996.418 1010.02 992.444 1012.95 989.514C1015.88 986.584 1019.86 984.938 1024 984.938C1028.14 984.938 1032.12 986.584 1035.05 989.514C1037.98 992.444 1039.62 996.418 1039.62 1000.56C1039.63 1002.47 1039.98 1004.36 1040.67 1006.14C1042.74 1038.2 1048.02 1059.24 1057.48 1075.01C1064.62 1087.27 1075.56 1096.87 1088.65 1102.35C1100.59 1107.47 1115.23 1109.96 1133.38 1109.96C1156.96 1109.96 1190.48 1106.33 1209.27 1075.03C1220.67 1056.03 1226 1029.35 1226.96 984.957H1227.12C1231.27 984.957 1235.24 983.311 1238.17 980.381C1241.1 977.45 1242.75 973.476 1242.75 969.332C1242.75 965.188 1241.1 961.214 1238.17 958.283C1235.24 955.353 1231.27 953.707 1227.12 953.707V953.688Z" fill="#26C3EB"/>
</svg>
