<svg width="2048" height="2048" viewBox="0 0 2048 2048" fill="none" xmlns="http://www.w3.org/2000/svg">
<rect width="2048" height="2048" fill="#4A494A"/>
<path d="M1215.91 927.828C1199.2 949.25 1178.64 961.102 1154.7 963.164L1141.8 942.711L1151.98 1213.44C1081.2 1254.87 966.797 1254.88 896.016 1213.44L906.188 942.711L893.734 962.672C869.805 960.609 849.234 948.742 832.547 927.344C825.023 917.57 818.855 906.825 814.211 895.398L813.719 896.336C826.43 871.812 850.812 826.195 858.711 821.5C868.328 815.797 917.32 816.125 944.367 809.969C951.619 817.35 959.582 823.997 968.141 829.812C976.063 835.178 984.588 839.596 993.539 842.977C1004.36 846.992 1015.23 849.023 1025.91 849.023H1026.23C1039.16 848.961 1051.85 845.938 1063.98 840C1077.36 833.453 1090.18 823.234 1102.18 809.672C1128.91 816.148 1179.49 815.695 1189.28 821.5C1197.15 826.188 1221.41 871.516 1234.16 896.102C1229.53 907.452 1223.39 918.125 1215.91 927.828Z" fill="#26C3EB"/>
<path d="M1166.45 992.117L1158.38 993.797C1158.38 993.797 1224 1185 1234.16 1193.5C1244.31 1202 1298 1178 1300.5 1168.5C1303 1159 1262 919.5 1258.38 911.242C1257.29 913.759 1255.61 917.688 1255.61 917.688C1229.82 978.258 1169.02 991.578 1166.45 992.117Z" fill="#26C3EB"/>
<path fill-rule="evenodd" clip-rule="evenodd" d="M1255.23 904.992C1226.03 846.797 1206.34 814.375 1196.69 808.633C1189.05 804.117 1175.86 802.852 1151.24 800.828C1132.81 799.32 1109.89 797.437 1099.62 793.414L1089.93 789.625L1083.23 797.609C1082.72 798.195 1058.45 825.945 1024.01 825.945C989.344 825.945 964.992 797.891 964.75 797.602L958.008 789.703L948.375 793.422C938.102 797.453 915.188 799.328 896.766 800.828C872.141 802.852 858.938 804.117 851.328 808.625C841.648 814.375 821.953 846.797 792.766 904.992L789.625 911.242L792.375 917.688C816.81 975.095 881.457 992.051 882.036 992.236C882.068 992.246 881.906 992.205 881.531 992.117L882.036 992.236L888.703 993.797L881.359 1212.88L881.023 1221.88L888.703 1226.37C961.578 1269.03 1086.4 1269.03 1159.28 1226.37L1166.96 1221.88L1166.62 1212.88L1158.38 993.797L1166.45 992.117C1169.02 991.578 1229.82 978.258 1255.61 917.688L1258.38 911.242L1255.23 904.992ZM1154.7 963.164C1178.64 961.102 1199.2 949.25 1215.91 927.828C1223.39 918.125 1229.53 907.452 1234.16 896.102C1221.41 871.516 1197.15 826.188 1189.28 821.5C1179.49 815.695 1128.91 816.148 1102.18 809.672C1090.18 823.234 1077.36 833.453 1063.98 840C1051.85 845.938 1039.16 848.961 1026.23 849.023H1025.91C1015.23 849.023 1004.36 846.992 993.539 842.977C984.588 839.596 976.063 835.178 968.141 829.812C959.582 823.997 951.619 817.35 944.367 809.969C917.32 816.125 868.328 815.797 858.711 821.5C850.812 826.195 826.43 871.812 813.719 896.336L814.211 895.398C818.855 906.825 825.023 917.57 832.547 927.344C849.234 948.742 869.805 960.609 893.734 962.672L906.188 942.711L896.016 1213.44C966.797 1254.88 1081.2 1254.87 1151.98 1213.44L1141.8 942.711L1154.7 963.164Z" fill="#26C3EB"/>
<path d="M792.375 917.688L789.625 911.242C789.625 911.242 751.102 1160.24 747.477 1168.5C749.977 1178 803.664 1202 813.82 1193.5C813.82 1193.5 878.547 1002.3 888.703 993.797L882.036 992.236C882.068 992.246 881.906 992.205 881.531 992.117L882.036 992.236C881.457 992.051 816.81 975.095 792.375 917.688Z" fill="#26C3EB"/>
<path d="M1024.5 826V832" stroke="white"/>
<path d="M1024.5 1232V1258.3" stroke="white"/>
<line x1="1024.5" y1="1146" x2="1024.5" y2="1176" stroke="white"/>
<line x1="1024.5" y1="1189" x2="1024.5" y2="1219" stroke="white"/>
<line x1="1024.5" y1="1103" x2="1024.5" y2="1133" stroke="white"/>
<line x1="1024.5" y1="1017" x2="1024.5" y2="1047" stroke="white"/>
<line x1="1024.5" y1="1060" x2="1024.5" y2="1090" stroke="white"/>
<line x1="1024.5" y1="974" x2="1024.5" y2="1004" stroke="white"/>
<line x1="1024.5" y1="888" x2="1024.5" y2="918" stroke="white"/>
<line x1="1024.5" y1="931" x2="1024.5" y2="961" stroke="white"/>
<line x1="1024.5" y1="845" x2="1024.5" y2="875" stroke="white"/>
</svg>
