<svg width="2048" height="2048" viewBox="0 0 2048 2048" fill="none" xmlns="http://www.w3.org/2000/svg">
<rect width="2048" height="2048" fill="#4A494A"/>
<path d="M892.523 932.734C898.478 932.734 903.305 926.907 903.305 919.719C903.305 912.53 898.478 906.703 892.523 906.703C886.569 906.703 881.742 912.53 881.742 919.719C881.742 926.907 886.569 932.734 892.523 932.734Z" fill="#26C3EB"/>
<path d="M1077.05 1246.98C1014.73 1246.98 965.93 1231.28 943.125 1203.91C913.394 1168.22 887.133 1147.44 863.961 1129.1L863.898 1129.05C843.32 1112.77 823.891 1097.39 805.211 1074.09C801.398 1069.05 799.844 1037.92 802.094 1025.83C804.797 1028.8 808.555 1033.27 812.227 1037.64C842.656 1073.86 913.922 1158.66 1013.55 1179.41C1028.23 1182.47 1049.47 1184.15 1073.32 1184.15C1126.85 1184.15 1217.71 1175.05 1245 1142.34C1245.98 1148.81 1246.94 1160.41 1246.94 1181.02C1246.94 1215.55 1165.96 1246.98 1077.05 1246.98Z" fill="#26C3EB"/>
<path d="M816.023 998.82C820.812 1010.39 825.328 1021.67 826.789 1037.2C824.719 1034.75 822.781 1032.45 821 1030.32C813.102 1020.93 808.93 1016.05 805.883 1013.65C805.921 1002.39 806.961 991.154 808.992 980.078C811.035 986.775 813.544 992.833 816.008 998.782L816.023 998.82Z" fill="#26C3EB"/>
<path d="M982.898 863.516C991.727 863.516 997.609 866.414 1000.87 872.375C1007.58 884.642 1014.65 896.712 1022.05 908.57C990.367 912.016 966.477 920.406 949.687 928.594C933.25 911.602 919.359 899.875 908.133 893.687C926.961 881.969 960.187 863.516 982.898 863.516Z" fill="#26C3EB"/>
<path d="M819.437 936.352C819.844 938.539 820.531 940.445 821.547 941.961C823.641 945.047 826.891 946.727 830.703 946.727C842.062 946.727 849.07 936.555 856.492 925.773L856.512 925.744C865.381 912.894 874.544 899.617 891.5 899.617C900.984 899.617 917.391 911.773 939.117 934.141C933.687 937.281 929.508 940.148 926.352 942.484C925.477 942.19 924.563 942.032 923.641 942.016C917.68 942.016 912.852 947.844 912.852 955.031C912.852 962.219 917.68 968.047 923.641 968.047C928.859 968.047 933.211 963.57 934.211 957.617C939.633 953.687 945.348 950.177 951.305 947.117C957.04 953.466 962.663 959.915 968.172 966.461C963.161 969.247 958.309 972.312 953.641 975.641C952.715 975.308 951.741 975.132 950.758 975.117C944.805 975.117 939.977 980.938 939.977 988.133C939.977 995.328 944.805 1001.15 950.758 1001.15C955.891 1001.15 960.164 996.805 961.258 991C967.061 986.918 973.149 983.257 979.477 980.047C985.281 987.148 991.297 994.656 997.492 1002.61C991.105 1006.83 985.227 1011.77 979.977 1017.34C979.687 1017.3 979.414 1017.23 979.117 1017.23C973.141 1017.23 968.32 1023.06 968.32 1030.25C968.32 1037.43 973.141 1043.27 979.117 1043.27C984.953 1043.27 989.695 1037.62 989.852 1030.61C995.182 1024.97 1001.26 1020.09 1007.91 1016.1C1012.63 1022.3 1017.47 1028.72 1022.41 1035.36C1016.7 1039.47 1011.41 1044.14 1006.62 1049.3C1006.38 1049.28 1006.15 1049.21 1005.91 1049.21C999.961 1049.21 995.125 1055.05 995.125 1062.23C995.125 1069.41 999.961 1075.25 1005.91 1075.25C1011.8 1075.25 1016.55 1069.55 1016.66 1062.48C1021.46 1057.46 1026.78 1052.97 1032.53 1049.09C1038.53 1057.31 1044.47 1065.56 1050.35 1073.86C1045 1077.68 1039.92 1081.87 1035.15 1086.4C1034.65 1086.31 1034.16 1086.22 1033.65 1086.22C1027.68 1086.22 1022.86 1092.05 1022.86 1099.23C1022.86 1106.42 1027.68 1112.25 1033.65 1112.25C1039.23 1112.25 1043.78 1107.09 1044.31 1100.49C1049.08 1096.03 1054.17 1091.93 1059.54 1088.22C1061.81 1094.66 1062.78 1104.72 1062.73 1114.42C1053.79 1114.01 1044.85 1113.78 1035.9 1113.73C1002.34 1113.73 969.312 1117.77 950.922 1144.11C902.047 1117.96 863.703 1079.22 838.586 1050.81C839.148 1025.47 832.883 1009.63 826.609 994.484C821.375 981.812 816.437 969.812 815.906 952.203C816.961 946.883 818.125 941.555 819.437 936.352Z" fill="#26C3EB"/>
<path d="M1238.05 1132.35C1221.12 1158.61 1142.52 1172.77 1073.32 1172.77C1050.22 1172.77 1029.83 1171.17 1015.88 1168.27C996.57 1164.24 978.375 1157.59 961.312 1149.35C977.336 1128.38 1006.34 1125.12 1035.88 1125.12C1047.36 1125.12 1059.2 1125.64 1071.76 1126.2C1084.58 1126.77 1097.84 1127.34 1110.95 1127.34C1142.59 1127.34 1182.42 1124.2 1212.23 1100.23C1217.56 1103.45 1228.16 1116.67 1238.05 1132.35Z" fill="#26C3EB"/>
<path d="M1145.13 1060.73C1149.66 1065.45 1153.92 1069.93 1157.59 1073.92C1162.59 1079.38 1173.25 1083.4 1184.53 1087.66L1184.58 1087.67C1190.42 1089.88 1196.3 1092.13 1200.95 1094.42C1174.67 1113.23 1140.95 1115.96 1110.95 1115.96C1098.7 1115.96 1086.23 1115.43 1074.09 1114.89C1074.07 1102.45 1072.26 1089.79 1069.19 1082.04C1086.9 1071.63 1112.36 1061.61 1145.13 1060.73Z" fill="#26C3EB"/>
<path d="M1111.05 1024.64C1117.01 1031.15 1123.04 1037.59 1129.12 1043.98C1099.56 1047.31 1076.38 1057.3 1059.85 1067.5C1054.06 1059.33 1048.22 1051.2 1042.34 1043.09C1057.98 1034.44 1080.37 1026.45 1111.05 1024.64Z" fill="#26C3EB"/>
<path d="M1096.27 1008.11C1068.01 1011.62 1047.03 1020.1 1032.02 1029.09C1027.3 1022.7 1022.67 1016.52 1018.16 1010.55C1040.98 999.594 1067.18 995.312 1083.86 993.656C1088.08 998.68 1092.2 1003.45 1096.27 1008.11Z" fill="#26C3EB"/>
<path d="M1007.48 996.648C1001.83 989.375 996.116 982.159 990.328 975C1006.78 967.891 1028.95 961.195 1056.49 959.031C1061.09 965.18 1065.78 971.257 1070.56 977.258C1052.23 979.906 1028.48 985.391 1007.48 996.648Z" fill="#26C3EB"/>
<path d="M978.742 961.016C973.336 954.586 967.833 948.239 962.234 941.977C979.109 934.672 1002.56 927.734 1032.99 925.539C1036.79 931.273 1040.59 936.859 1044.39 942.266C1016.7 945.703 994.773 953.367 978.742 961.016Z" fill="#26C3EB"/>
<path d="M842.523 885.094C843.727 884.234 847.437 882.156 855.562 882.156C861.859 882.156 871.937 883.523 886.711 888.695C866.883 890.93 855.914 906.492 847.07 919.336L846.981 919.465C841.327 927.651 836.013 935.345 831.039 935.609C827.977 931.703 833.445 907.82 842.523 885.094Z" fill="#26C3EB"/>
</svg>
